<mxfile host="app.diagrams.net" agent="Mozilla/5.0 (Windows NT 10.0; Win64; x64) AppleWebKit/537.36 (KHTML, like Gecko) Chrome/134.0.0.0 Safari/537.36" version="26.2.9">
  <diagram name="Page-1" id="VL-2uDHXxDPcgeuRqNnN">
    <mxGraphModel dx="1142" dy="622" grid="1" gridSize="10" guides="1" tooltips="1" connect="1" arrows="1" fold="1" page="1" pageScale="1" pageWidth="2336" pageHeight="1654" math="0" shadow="0">
      <root>
        <mxCell id="0" />
        <mxCell id="1" parent="0" />
        <mxCell id="sWroaXwxI8ualz-jEgBE-1" value="User Prompt → Test Parser → Page Loader → Visual Analyzer → Action Executor → Results Validator → Report Generator" style="text;whiteSpace=wrap;" vertex="1" parent="1">
          <mxGeometry x="560" y="170" width="560" height="50" as="geometry" />
        </mxCell>
        <mxCell id="sWroaXwxI8ualz-jEgBE-2" value="&lt;span style=&quot;text-align: left;&quot;&gt;User Prompt&lt;/span&gt;" style="rounded=1;whiteSpace=wrap;html=1;" vertex="1" parent="1">
          <mxGeometry x="490" y="290" width="120" height="60" as="geometry" />
        </mxCell>
        <mxCell id="sWroaXwxI8ualz-jEgBE-3" value="Test Parser" style="rounded=1;whiteSpace=wrap;html=1;" vertex="1" parent="1">
          <mxGeometry x="650" y="370" width="120" height="60" as="geometry" />
        </mxCell>
        <mxCell id="sWroaXwxI8ualz-jEgBE-4" value="Page Loader" style="rounded=1;whiteSpace=wrap;html=1;" vertex="1" parent="1">
          <mxGeometry x="810" y="290" width="120" height="60" as="geometry" />
        </mxCell>
        <mxCell id="sWroaXwxI8ualz-jEgBE-5" value="Visual Analyzer" style="rounded=1;whiteSpace=wrap;html=1;" vertex="1" parent="1">
          <mxGeometry x="960" y="370" width="120" height="60" as="geometry" />
        </mxCell>
        <mxCell id="sWroaXwxI8ualz-jEgBE-6" value="Action Executor" style="rounded=1;whiteSpace=wrap;html=1;" vertex="1" parent="1">
          <mxGeometry x="1108" y="290" width="120" height="60" as="geometry" />
        </mxCell>
        <mxCell id="sWroaXwxI8ualz-jEgBE-7" value="Results Validator" style="rounded=1;whiteSpace=wrap;html=1;" vertex="1" parent="1">
          <mxGeometry x="1270" y="370" width="120" height="60" as="geometry" />
        </mxCell>
        <mxCell id="sWroaXwxI8ualz-jEgBE-8" value="Report Generator" style="rounded=1;whiteSpace=wrap;html=1;" vertex="1" parent="1">
          <mxGeometry x="1430" y="290" width="120" height="60" as="geometry" />
        </mxCell>
      </root>
    </mxGraphModel>
  </diagram>
</mxfile>
